<svg width="24" height="28" viewBox="0 0 24 28" fill="none" xmlns="http://www.w3.org/2000/svg">
<path d="M22.4571 13.44H1.54286C0.685714 13.44 0 12.7612 0 11.9127V8.48482C0 7.63634 0.685714 6.95755 1.54286 6.95755H22.4914C23.3486 6.95755 24.0343 7.63634 24.0343 8.48482V11.9127C24 12.7272 23.3143 13.44 22.4571 13.44ZM1.54286 8.24725C1.40571 8.24725 1.33714 8.34907 1.33714 8.45088V11.8788C1.33714 12.0145 1.44 12.0824 1.54286 12.0824H22.4914C22.6286 12.0824 22.6971 11.9806 22.6971 11.8788V8.48482C22.6971 8.34907 22.5943 8.28119 22.4914 8.28119H1.54286V8.24725Z" fill="#FF7905"/>
<path d="M20.5714 28.0002H3.42854C2.5714 28.0002 1.88568 27.3214 1.88568 26.4729V12.965C1.88568 12.5917 2.19425 12.3202 2.53711 12.3202C2.91425 12.3202 3.18854 12.6256 3.18854 12.965V26.5068C3.18854 26.6426 3.2914 26.7105 3.39425 26.7105H20.5371C20.6743 26.7105 20.7428 26.6086 20.7428 26.5068V12.965C20.7428 12.5917 21.0514 12.3202 21.3943 12.3202C21.7714 12.3202 22.0457 12.6256 22.0457 12.965V26.5068C22.1143 27.3214 21.4285 28.0002 20.5714 28.0002Z" fill="#FF7905"/>
<path d="M17.2114 8.07775C17.2114 8.07775 19.4057 8.3832 21.0514 6.68623C22.6971 4.98926 22.7657 3.97108 22.1142 3.29229C21.4628 2.61351 21.12 1.90078 21.1542 1.32381C21.1885 0.746839 21.2914 0.101991 19.44 0.000172494C17.5885 -0.101646 15.1885 0.848657 12.8228 4.41229H12H11.1428C8.81138 0.848657 6.3771 -0.101646 4.52567 0.000172494C2.67424 0.101991 2.7771 0.746839 2.81138 1.32381C2.84567 1.90078 2.50281 2.61351 1.85138 3.29229C1.19996 3.97108 1.23424 4.98926 2.91424 6.68623C4.55996 8.3832 6.75424 8.07775 6.75424 8.07775C3.70281 9.12987 2.19424 13.1687 2.19424 13.1687L5.96567 15.8499C7.67996 10.6911 10.4228 8.34926 10.4228 8.34926H12H13.5428C13.5428 8.34926 16.2857 10.725 18 15.8499L21.7714 13.1687C21.7714 13.1687 20.2628 9.12987 17.2114 8.07775ZM9.59996 6.4826C9.59996 6.4826 6.03424 4.34441 2.87996 4.10684C2.87996 4.10684 3.87424 3.19048 3.90853 1.56138C3.90853 1.56138 6.47996 0.271688 10.1142 4.78563C10.1485 4.78563 9.42853 5.46441 9.59996 6.4826ZM13.2685 6.88987H12H10.7314C10.2514 5.97351 10.8685 5.3626 10.8685 5.3626H12H13.0971C13.0971 5.3626 13.7485 5.97351 13.2685 6.88987ZM13.8514 4.78563C17.52 0.305627 20.0914 1.59532 20.0914 1.59532C20.1257 3.22441 21.12 4.14078 21.12 4.14078C17.9657 4.34441 14.4 6.51654 14.4 6.51654C14.5714 5.46441 13.8514 4.78563 13.8514 4.78563Z" fill="#FF7905"/>
<path d="M13.7488 12.9312H10.2173V27.1518H13.7488V12.9312Z" fill="#FF7905"/>
<path d="M13.7488 7.94229H10.2173V12.7277H13.7488V7.94229Z" fill="#FF7905"/>
</svg>
