<svg width="123" height="118" viewBox="0 0 123 118" fill="none" xmlns="http://www.w3.org/2000/svg">
<path d="M27.0304 64.7748C22.7795 59.5083 18.7179 54.3981 14.467 49.1316C31.673 54.9098 49.0346 60.1139 66.7242 64.5351C84.2243 68.7999 101.88 72.4907 120.472 68.8759C122.643 68.5612 122.491 65.2742 120.32 65.5889C100.575 67.9002 82.3338 63.375 64.0761 58.4846C49.5044 54.5306 35.1052 50.3677 20.8615 45.6307C24.8248 44.6884 28.7711 43.3809 32.8899 41.8646C35.9401 40.8708 35.152 35.6538 31.9124 36.4911C23.8134 38.5845 15.7145 40.6779 7.61551 42.7714C5.63389 43.2425 4.09873 45.4873 5.45823 47.3124C11.0687 54.4041 16.8515 61.2869 22.462 68.3786C24.4065 71.0381 28.975 67.4343 27.0304 64.7748Z" fill="#FFC804"/>
</svg>
