<svg width="77" height="41" viewBox="0 0 77 41" fill="none" xmlns="http://www.w3.org/2000/svg">
<path d="M74.3015 20.7741C64.3008 8.51567 49.2998 0.425121 33.2012 3.48972C16.9806 6.55433 7.4678 20.0386 7.4678 35.9745C7.4678 35.9745 7.4678 35.8519 7.58976 35.8519C9.05327 33.4002 10.3948 30.4582 13.0779 29.1098C14.5414 28.3743 15.6391 30.3356 14.2975 31.3163C12.3462 32.7873 11.2485 34.6261 10.0289 36.5874C9.41915 37.8133 8.56543 39.8972 6.97996 40.1423C5.39449 40.3875 4.7847 38.7939 4.1749 37.6907C2.83335 35.1164 1.4918 32.5421 0.394162 29.8453C-0.0936747 28.742 1.36984 27.8839 2.10159 28.8646C3.32119 30.5808 4.29686 32.5421 5.27253 34.3809C5.39449 34.6261 5.51645 34.8712 5.63841 35.1164C3.07727 19.7934 15.3952 5.57365 29.6644 1.65096C47.3485 -3.2524 64.9106 5.32848 76.1309 18.9353C77.2285 20.1612 75.3991 22.1225 74.3015 20.7741Z" fill="#FFC804"/>
</svg>
